<svg width="448" height="512" viewBox="0 0 448 512" fill="none" xmlns="http://www.w3.org/2000/svg">
<g clip-path="url(#clip0_231_2)">
<path d="M221.6 148.7C224.7 161.3 224.8 174.5 222.1 187.2C219.3 199.1 213.6 211.9 205.6 222.1C191.1 238.6 173 249.1 151.1 254.1V472C151.1 482.6 147.8 492.8 140.3 500.3C132.8 507.8 122.6 512 111.1 512C101.4 512 91.22 507.8 83.71 500.3C76.21 492.8 71.1 482.6 71.1 472V254.1C50.96 250.1 31.96 238.9 18.3 222.4C10.19 212.2 4.52896 200.3 1.75496 187.5C-1.01904 174.7 -0.831542 161.5 2.30296 148.8L32.51 12.45C33.36 8.59804 35.61 5.19704 38.82 2.90004C42.02 0.602035 45.97 -0.429665 49.89 0.00263538C53.82 0.430235 57.46 2.30304 60.1 5.25904C62.74 8.21404 64.18 12.04 64.16 16V160H81.53L98.62 11.91C99.02 8.63504 100.6 5.62104 103.1 3.43404C105.5 1.24804 108.7 0.0401354 111.1 0.0401354C115.3 0.0401354 118.5 1.24804 120.9 3.43404C123.4 5.62104 124.1 8.63504 125.4 11.91L142.5 160H159.1V16C159.1 12.07 161.4 8.26804 163.1 5.31704C166.6 2.36604 170.2 0.474035 174.1 0.00263538C178 -0.426165 181.1 0.619035 185.2 2.93604C188.4 5.25304 190.6 8.67704 191.5 12.55L221.6 148.7ZM448 472C448 482.6 443.8 492.8 436.3 500.3C428.8 507.8 418.6 512 408 512C397.4 512 387.2 507.8 379.7 500.3C372.2 492.8 368 482.6 368 472V352H351.2C342.8 352 334.4 350.3 326.6 347.1C318.9 343.8 311.8 339.1 305.8 333.1C299.9 327.1 295.2 320 291.1 312.2C288.8 304.4 287.2 296 287.2 287.6L287.1 173.8C288 136.9 299.1 100.8 319.8 70.28C340.5 39.71 369.8 16.05 404.1 2.33904C408.1 0.401035 414.2 -0.320165 419.4 0.239135C424.6 0.798235 429.6 2.62004 433.9 5.54604C438.2 8.47204 441.8 12.41 444.2 17.03C446.7 21.64 447.1 26.78 448 32V472Z" fill="#FFA500"/>
</g>
<defs>
<clipPath id="clip0_231_2">
<rect width="448" height="512" fill="white"/>
</clipPath>
</defs>
</svg>
